<svg width="800" height="500" xmlns="http://www.w3.org/2000/svg">
 <!-- Created with Method Draw - http://github.com/duopixel/Method-Draw/ -->

 <g>
  <title>background</title>
  <rect fill="#fff" id="canvas_background" height="502" width="802" y="-1" x="-1"/>
  <g display="none" overflow="visible" y="0" x="0" height="100%" width="100%" id="canvasGrid">
   <rect fill="url(#gridpattern)" stroke-width="0" y="1" x="1" height="600" width="800"/>
  </g>
 </g>
 <g>
  <title>Layer 1</title>
  <rect stroke="#000" opacity="0.4" id="svg_37" height="348.946442" width="637.893042" y="33.157805" x="43.948307" stroke-opacity="null" stroke-width="1.5" fill="#007fff"/>
  <rect id="svg_1" height="196" width="384" y="102.542599" x="129.3419" stroke-width="1.5" stroke="#000" fill="#fff"/>
  <text xml:space="preserve" text-anchor="start" font-family="Helvetica, Arial, sans-serif" font-size="24" id="svg_2" y="127.068913" x="132.868214" stroke-width="0" stroke="#000" fill="#000000">Node's ContentBox</text>
  <rect id="svg_3" height="59" width="154" y="164.068913" x="221.710276" stroke-width="1.5" stroke="#000" fill="#fff"/>
  <text style="cursor: move;" xml:space="preserve" text-anchor="start" font-family="Helvetica, Arial, sans-serif" font-size="24" id="svg_4" y="190.068913" x="228.710276" stroke-width="0" stroke="#000" fill="#000000">Primitive1</text>
  <rect id="svg_5" height="59" width="154" y="200.068913" x="276.710276" stroke-width="1.5" stroke="#000" fill="#fff"/>
  <text style="cursor: move;" xml:space="preserve" text-anchor="start" font-family="Helvetica, Arial, sans-serif" font-size="24" id="svg_6" y="226.068913" x="283.710276" stroke-width="0" stroke="#000" fill="#000000">Primitive2</text>
  <line stroke="#000" stroke-dasharray="5,5" stroke-linecap="null" stroke-linejoin="null" id="svg_7" y2="47.451742" x2="221.710276" y1="164.068912" x1="221.710276" fill-opacity="null" stroke-opacity="null" stroke-width="1.5" fill="none"/>
  <line stroke="#000" stroke-dasharray="5,5" stroke-linecap="null" stroke-linejoin="null" id="svg_9" y2="164.068913" x2="63.717612" y1="164.068913" x1="221.710276" fill-opacity="null" stroke-opacity="null" stroke-width="1.5" fill="none"/>
  <ellipse ry="4.5" rx="4.5" id="svg_11" cy="103.621541" cx="129.736642" stroke-opacity="null" stroke-width="1.5" stroke="#000" fill="#000000"/>
  <text xml:space="preserve" text-anchor="start" font-family="Helvetica, Arial, sans-serif" font-size="24" id="svg_13" y="341.756197" x="250.736931" stroke-opacity="null" stroke-width="0" stroke="#000" fill="#000000">ContentBox.Width</text>
  <text xml:space="preserve" text-anchor="start" font-family="Helvetica, Arial, sans-serif" font-size="24" id="svg_14" y="208.598652" x="520.736218" stroke-opacity="null" stroke-width="0" stroke="#000" fill="#000000">ContentBox.Height</text>
  <line stroke="#000" stroke-dasharray="5,5" stroke-linecap="null" stroke-linejoin="null" id="svg_16" y2="103.016444" x2="507.400662" y1="103.016444" x1="657.498584" fill-opacity="null" stroke-opacity="null" stroke-width="1.5" fill="none"/>
  <line stroke="#000" stroke-dasharray="5,5" stroke-linecap="null" stroke-linejoin="null" id="svg_17" y2="298.805399" x2="513.19012" y1="298.805399" x1="658.551231" fill-opacity="null" stroke-opacity="null" stroke-width="1.5" fill="none"/>
  <line stroke-dasharray="5,5" stroke-linecap="null" stroke-linejoin="null" id="svg_18" y2="289.556375" x2="129.605259" y1="376.699935" x1="129.605259" fill-opacity="null" stroke-opacity="null" stroke-width="1.5" stroke="#000" fill="none"/>
  <line stroke-dasharray="5,5" stroke-linecap="null" stroke-linejoin="null" id="svg_19" y2="292.714262" x2="513.814763" y1="379.857821" x1="513.814763" fill-opacity="null" stroke-opacity="null" stroke-width="1.5" stroke="#000" fill="none"/>
  <text xml:space="preserve" text-anchor="start" font-family="Helvetica, Arial, sans-serif" font-size="24" id="svg_20" y="409.650763" x="114.94781" fill-opacity="null" stroke-opacity="null" stroke-width="0" stroke="#000" fill="#000000">A = (Node.ContentBox.X, Node.ContentBox.Y)</text>
  <text xml:space="preserve" text-anchor="start" font-family="Helvetica, Arial, sans-serif" font-size="24" id="svg_21" y="100.704206" x="107.053395" fill-opacity="null" stroke-opacity="null" stroke-width="0" stroke="#000" fill="#000000">A</text>
  <ellipse ry="4.5" rx="4.5" id="svg_22" cy="163.621381" cx="221.841659" stroke-opacity="null" stroke-width="1.5" stroke="#000" fill="#000000"/>
  <text xml:space="preserve" text-anchor="start" font-family="Helvetica, Arial, sans-serif" font-size="24" id="svg_23" y="153.335646" x="229.68465" stroke-opacity="null" stroke-width="0" stroke="#000" fill="#000000">B</text>
  <text stroke="#000" xml:space="preserve" text-anchor="start" font-family="Helvetica, Arial, sans-serif" font-size="24" id="svg_24" y="440.177001" x="113.895181" fill-opacity="null" stroke-opacity="null" stroke-width="0" fill="#000000">B = (Node.ContentBox.X+Primitive1.Offset.X,</text>
  <ellipse ry="4.5" rx="4.5" id="svg_25" cy="199.937078" cx="277.104675" stroke-opacity="null" stroke-width="1.5" stroke="#000" fill="#000000"/>
  <path stroke="#000" id="svg_26" d="m481.412772,347.65697l8.594972,-7.234427l-16.617959,0l-16.617922,0l0,-4.478453l0,-4.478458l16.427281,0c9.034992,0 16.427268,-0.226989 16.427268,-0.504422c0,-0.277427 -3.596802,-3.53292 -7.992884,-7.234426l-7.992909,-6.730011l7.387891,0l7.387863,0l11.282941,9.482732l11.282935,9.482727l-11.304579,9.464583l-11.304576,9.464583l-7.777652,0l-7.77767,0l8.594996,-7.23443l0.000004,0.000002z" stroke-opacity="null" stroke-width="1.5" fill="#000000"/>
  <path transform="rotate(180 159.6673431396484,335.41778564453125) " stroke="#000" id="svg_29" d="m157.203065,347.13066l8.59497,-7.23443l-16.61796,0l-16.61792,0l0,-4.47846l0,-4.47845l16.42728,0c9.03499,0 16.42727,-0.22699 16.42727,-0.50443c0,-0.27742 -3.5968,-3.53292 -7.99288,-7.23442l-7.99291,-6.73001l7.38789,0l7.38786,0l11.28294,9.48273l11.28294,9.48273l-11.30458,9.46458l-11.30458,9.46458l-7.77765,0l-7.77767,0l8.595,-7.23443l0,0.00001z" stroke-opacity="null" stroke-width="1.5" fill="#000000"/>
  <path transform="rotate(90 589.6662597656251,268.5758361816407) " stroke="#000" id="svg_30" d="m587.20198,280.28871l8.59497,-7.23442l-16.61796,0l-16.61792,0l0,-4.47846l0,-4.47845l16.42728,0c9.03499,0 16.42727,-0.22699 16.42727,-0.50443c0,-0.27742 -3.59681,-3.53292 -7.99289,-7.23442l-7.99291,-6.73001l7.38789,0l7.38787,0l11.28294,9.48273l11.28293,9.48273l-11.30458,9.46458l-11.30457,9.46458l-7.77765,0l-7.77767,0l8.59499,-7.23443l0.00001,0z" stroke-opacity="null" stroke-width="1.5" fill="#000000"/>
  <path transform="rotate(-90 592.2978515625001,133.3130187988281) " stroke="#000" id="svg_31" d="m589.833546,145.025905l8.59497,-7.23442l-16.61796,0l-16.61792,0l0,-4.47846l0,-4.47845l16.42728,0c9.03499,0 16.42727,-0.22699 16.42727,-0.50443c0,-0.27742 -3.59681,-3.53292 -7.99289,-7.23442l-7.99291,-6.73001l7.38789,0l7.38787,0l11.28294,9.48273l11.28293,9.48273l-11.30458,9.46458l-11.30457,9.46458l-7.77765,0l-7.77767,0l8.59499,-7.23443l0.00001,0z" stroke-opacity="null" stroke-width="1.5" fill="#000000"/>
  <line stroke="#000" stroke-dasharray="5,5" stroke-linecap="null" stroke-linejoin="null" id="svg_32" y2="46.399115" x2="130.131566" y1="102.49012" x1="130.131566" fill-opacity="null" stroke-opacity="null" stroke-width="1.5" fill="none"/>
  <line stroke="#000" stroke-dasharray="5,5" stroke-linecap="null" stroke-linejoin="null" id="svg_33" y2="103.542751" x2="59.507097" y1="103.542751" x1="129.078928" fill-opacity="null" stroke-opacity="null" stroke-width="1.5" fill="none"/>
  <text xml:space="preserve" text-anchor="start" font-family="Helvetica, Arial, sans-serif" font-size="24" id="svg_34" y="141.525953" x="44.948266" fill-opacity="null" stroke-opacity="null" stroke-width="0" stroke="#000" fill="#000000">OffsetY</text>
  <text xml:space="preserve" text-anchor="start" font-family="Helvetica, Arial, sans-serif" font-size="24" id="svg_35" y="85.736624" x="136.000667" fill-opacity="null" stroke-opacity="null" stroke-width="0" stroke="#000" fill="#000000">OffsetX</text>
  <text xml:space="preserve" text-anchor="start" font-family="Helvetica, Arial, sans-serif" font-size="24" id="svg_36" y="471.525084" x="166.000575" fill-opacity="null" stroke-opacity="null" stroke-width="0" stroke="#000" fill="#000000">Node.ContentBox.Y+Primitive1.Offset.Y)</text>
  <text opacity="0.4" xml:space="preserve" text-anchor="start" font-family="Helvetica, Arial, sans-serif" font-size="24" id="svg_38" y="57.36827" x="47.632485" stroke-opacity="null" stroke-width="0" stroke="#000" fill="#000000">Node</text>
 </g>
</svg>